<!DOCTYPE svg PUBLIC "-//W3C//DTD SVG 1.1//EN" "http://www.w3.org/Graphics/SVG/1.1/DTD/svg11.dtd">
<!-- Uploaded to: SVG Repo, www.svgrepo.com, Transformed by: SVG Repo Mixer Tools -->
<svg fill="#ffffff" height="64px" width="64px" version="1.1" id="Capa_1" xmlns="http://www.w3.org/2000/svg" xmlns:xlink="http://www.w3.org/1999/xlink" viewBox="0 0 237.832 237.832" xml:space="preserve" stroke="#ffffff">
<g id="SVGRepo_bgCarrier" stroke-width="0"/>
<g id="SVGRepo_tracerCarrier" stroke-linecap="round" stroke-linejoin="round"/>
<g id="SVGRepo_iconCarrier"> <path d="M228.977,33.916H8.854C3.969,33.916,0,37.881,0,42.771V195.06c0,4.891,3.969,8.856,8.854,8.856h220.123 c4.887,0,8.855-3.965,8.855-8.856V42.771C237.832,37.881,233.864,33.916,228.977,33.916z M221.026,182.184 c0,4.063-3.364,7.356-7.512,7.356h-12.339V73.379l-76.693,49.79c-1.687,1.096-3.627,1.641-5.566,1.641s-3.88-0.545-5.566-1.641 l-76.692-49.79V189.54h-12.34c-4.147,0-7.512-3.293-7.512-7.356V55.647c0-4.063,3.364-7.356,7.512-7.356h10.176l84.423,54.808 l84.423-54.808h10.176c4.147,0,7.512,3.293,7.512,7.356V182.184z"/> </g>
</svg>