<!DOCTYPE svg PUBLIC "-//W3C//DTD SVG 1.1//EN" "http://www.w3.org/Graphics/SVG/1.1/DTD/svg11.dtd">
<!-- Uploaded to: SVG Repo, www.svgrepo.com, Transformed by: SVG Repo Mixer Tools -->
<svg fill="#000000" height="64px" width="64px" version="1.1" id="Capa_1" xmlns="http://www.w3.org/2000/svg" xmlns:xlink="http://www.w3.org/1999/xlink" viewBox="0 0 366.049 366.049" xml:space="preserve">
<g id="SVGRepo_bgCarrier" stroke-width="0"/>
<g id="SVGRepo_tracerCarrier" stroke-linecap="round" stroke-linejoin="round"/>
<g id="SVGRepo_iconCarrier"> <path d="M229.793,8.024h-93.537C60.999,8.024,0,69.034,0,144.29v77.479c0,75.246,60.999,136.256,136.256,136.256h93.537 c75.257,0,136.256-61.01,136.256-136.256V144.29C366.049,69.034,305.05,8.024,229.793,8.024z M189.025,69.912 c16.017,0,29,12.984,29,29c0,16.016-12.983,29-29,29c-16.016,0-29-12.984-29-29C160.025,82.896,173.009,69.912,189.025,69.912z M230.236,271.562c-8.26,6.891-29.455,24.576-50.822,24.576c-6.506,0-13.026-1.639-19.204-5.722 c-19.497-12.885-24.182-24.936-15.189-77.731c5.551-32.589,14.465-62.354,14.842-63.604c3.185-10.578,14.34-16.57,24.917-13.384 c10.577,3.185,16.569,14.341,13.384,24.917c-0.137,0.456-7.207,25.808-12.812,53.708c-7.304,36.363-5.541,39.288-3.03,41.095 c4.54,3.268,10.527-4.755,22.288-14.568c8.482-7.076,21.093-5.938,28.17,2.543C239.855,251.873,238.717,264.485,230.236,271.562z"/> </g>
</svg>